<svg width="20" height="24" viewBox="0 0 20 24" fill="none" xmlns="http://www.w3.org/2000/svg">
<path d="M5.5 3.20013V16.4001C5.5 16.9836 5.73705 17.5432 6.15901 17.9558C6.58097 18.3684 7.15326 18.6002 7.75 18.6002H16.75C17.3467 18.6002 17.919 18.3684 18.341 17.9558C18.7629 17.5432 19 16.9836 19 16.4001V6.76633C18.9999 6.47325 18.94 6.18312 18.8237 5.913C18.7074 5.64288 18.5371 5.39819 18.3227 5.19333L14.5934 1.62712C14.173 1.22525 13.6085 1.00019 13.0206 1.00012H7.75C7.15326 1.00012 6.58097 1.23191 6.15901 1.64449C5.73705 2.05707 5.5 2.61665 5.5 3.20013Z" stroke="currentColor" stroke-width="2" stroke-linecap="round" stroke-linejoin="round"/>
<path d="M14.5 18.6001V20.8001C14.5 21.3836 14.2629 21.9431 13.841 22.3557C13.419 22.7683 12.8467 23.0001 12.25 23.0001H3.25C2.65326 23.0001 2.08097 22.7683 1.65901 22.3557C1.23705 21.9431 1 21.3836 1 20.8001V8.70006C1 8.11659 1.23705 7.55701 1.65901 7.14443C2.08097 6.73185 2.65326 6.50006 3.25 6.50006H5.49999" stroke="currentColor" stroke-width="2" stroke-linecap="round" stroke-linejoin="round"/>
</svg>
